<svg width="14" height="14" viewBox="0 0 14 14" fill="none" xmlns="http://www.w3.org/2000/svg">
    <path d="M7.54339 7.13129L2.52205 7.96795C2.46432 7.97759 2.41015 8.00225 2.36498 8.03947C2.3198 8.07668 2.28523 8.12513 2.26472 8.17995L0.533387 12.8186C0.368053 13.2453 0.814053 13.652 1.22339 13.4466L13.2234 7.44662C13.3063 7.40505 13.3761 7.34122 13.4248 7.26228C13.4735 7.18334 13.4994 7.09239 13.4994 6.99962C13.4994 6.90684 13.4735 6.8159 13.4248 6.73696C13.3761 6.65801 13.3063 6.59419 13.2234 6.55262L1.22339 0.552619C0.814053 0.347952 0.368053 0.754619 0.533387 1.18062L2.26539 5.81929C2.28589 5.8741 2.32047 5.92256 2.36564 5.95977C2.41082 5.99699 2.46499 6.02165 2.52272 6.03129L7.54405 6.86795C7.57538 6.87295 7.60389 6.88895 7.62448 6.91309C7.64506 6.93722 7.65637 6.9679 7.65637 6.99962C7.65637 7.03134 7.64506 7.06202 7.62448 7.08615C7.60389 7.11028 7.57538 7.12629 7.54405 7.13129H7.54339Z" fill="white" fill-opacity="0.35"/>
</svg>
